<svg width="16" height="14" viewBox="0 0 16 14" fill="none" xmlns="http://www.w3.org/2000/svg">
<path d="M14.5 13H1.5C0.67 13 0 12.33 0 11.5V2.5C0 1.67 0.67 1 1.5 1H14.5C15.33 1 16 1.67 16 2.5V11.5C16 12.33 15.33 13 14.5 13ZM1.5 2C1.22 2 1 2.22 1 2.5V11.5C1 11.78 1.22 12 1.5 12H14.5C14.78 12 15 11.78 15 11.5V2.5C15 2.22 14.78 2 14.5 2H1.5Z" fill="#505052"/>
<path d="M8.00005 8.96012C7.30005 8.96012 6.66005 8.68012 6.18005 8.17012L0.930045 2.59012C0.740045 2.39012 0.750045 2.07012 0.950045 1.88012C1.15005 1.69012 1.47005 1.70012 1.66005 1.90012L6.91005 7.48012C7.48005 8.09012 8.52005 8.09012 9.09005 7.48012L14.34 1.91012C14.53 1.71012 14.85 1.70012 15.05 1.89012C15.25 2.08012 15.26 2.40012 15.07 2.60012L9.82005 8.18012C9.34005 8.69012 8.70005 8.97012 8.00005 8.97012V8.96012Z" fill="#505052"/>
</svg>
