<svg width="30" height="30" viewBox="0 0 30 30" fill="none" xmlns="http://www.w3.org/2000/svg"><path d="M25.0039 10.313V22.5005C25.0039 26.2505 22.7664 27.5005 20.0039 27.5005H10.0039C7.24141 27.5005 5.00391 26.2505 5.00391 22.5005V10.313C5.00391 6.25049 7.24141 5.31299 10.0039 5.31299C10.0039 6.08799 10.3164 6.78798 10.8289 7.30048C11.3414 7.81298 12.0414 8.12549 12.8164 8.12549H17.1914C18.7414 8.12549 20.0039 6.86299 20.0039 5.31299C22.7664 5.31299 25.0039 6.25049 25.0039 10.313Z" stroke="#235EFA" stroke-width="1.5" stroke-linecap="round" stroke-linejoin="round"></path><path d="M19.9961 5.31299C19.9961 6.86299 18.7336 8.12549 17.1836 8.12549H12.8086C12.0336 8.12549 11.3336 7.81298 10.8211 7.30048C10.3086 6.78798 9.99609 6.08799 9.99609 5.31299C9.99609 3.76299 11.2586 2.50049 12.8086 2.50049H17.1836C17.9586 2.50049 18.6586 2.81299 19.1711 3.32549C19.6836 3.83799 19.9961 4.53799 19.9961 5.31299Z" stroke="#235EFA" stroke-width="1.5" stroke-linecap="round" stroke-linejoin="round"></path><path d="M9.99609 16.2495H14.9961" stroke="#235EFA" stroke-width="1.5" stroke-linecap="round" stroke-linejoin="round"></path><path d="M9.99609 21.2505H19.9961" stroke="#235EFA" stroke-width="1.5" stroke-linecap="round" stroke-linejoin="round"></path></svg>